<?xml version="1.0" standalone="no"?>
<!DOCTYPE svg PUBLIC "-//W3C//DTD SVG 20010904//EN"
 "http://www.w3.org/TR/2001/REC-SVG-20010904/DTD/svg10.dtd">
<svg version="1.0" xmlns="http://www.w3.org/2000/svg"
 width="300.000000pt" height="300.000000pt" viewBox="0 0 300.000000 300.000000"
 preserveAspectRatio="xMidYMid meet">
<metadata>
Created by potrace 1.11, written by Peter Selinger 2001-2013
</metadata>
<g transform="translate(0.000000,300.000000) scale(0.100000,-0.100000)"
fill="#000000" stroke="none">
<path d="M1024 2315 c-80 -29 -104 -64 -108 -158 -2 -46 -6 -62 -17 -62 -10 0
-15 -16 -17 -57 -2 -47 0 -57 11 -52 20 7 24 -9 21 -106 -2 -105 -1 -100 -18
-100 -10 0 -14 -14 -14 -55 l1 -55 123 0 122 0 4 55 c3 51 2 54 -22 57 -25 3
-25 4 -25 103 l0 100 38 0 37 -1 0 53 c0 29 -4 54 -10 54 -5 1 -19 3 -30 4
-11 1 -24 3 -30 4 -10 1 -11 35 -3 84 4 23 9 27 39 27 29 0 36 5 54 40 11 21
20 44 20 49 0 9 -52 20 -117 25 -17 1 -43 -3 -59 -9z"/>
<path d="M1371 2318 c-86 -15 -121 -60 -125 -161 -2 -46 -6 -62 -17 -62 -10 0
-15 -15 -17 -52 -2 -42 0 -52 15 -57 16 -5 18 -18 18 -101 0 -82 -2 -96 -17
-101 -14 -4 -18 -16 -18 -60 l0 -54 125 0 c76 0 125 4 126 10 1 6 1 21 1 35 0
67 -2 72 -24 71 -22 -1 -23 2 -23 99 l0 99 30 2 c17 1 33 2 38 3 13 2 8 101
-5 102 -7 1 -20 3 -28 4 -8 1 -20 3 -26 4 -12 1 -17 65 -8 94 4 12 16 17 40
17 31 0 37 5 56 45 12 24 20 47 17 49 -11 12 -118 21 -158 14z"/>
<path d="M1607 2297 c-15 -7 -33 -24 -41 -38 -40 -78 54 -156 133 -108 17 10
32 22 32 26 10 61 -7 108 -43 118 -47 13 -54 14 -81 2z"/>
<path d="M454 2267 c-50 -17 -106 -55 -134 -90 -95 -120 -87 -338 16 -441 32
-32 118 -78 128 -69 3 4 6 2 6 -4 0 -6 -17 -13 -37 -17 -90 -14 -203 -91 -229
-153 -21 -49 -17 -72 16 -103 44 -41 112 -55 317 -64 117 -6 178 -21 199 -50
20 -28 18 -40 -12 -75 -22 -27 -46 -38 -124 -58 -76 -20 -180 -8 -180 21 0 34
98 70 170 63 14 -1 27 2 30 8 7 14 -38 33 -85 36 -93 4 -113 0 -149 -35 -43
-40 -48 -82 -13 -113 33 -30 53 -35 144 -38 178 -7 349 73 357 166 9 101 -65
133 -329 143 -146 6 -230 40 -218 88 16 66 90 101 243 114 122 11 269 -32 270
-78 0 -16 -46 -30 -104 -32 -79 -3 -122 8 -129 35 -8 29 -39 21 -51 -13 -20
-56 58 -100 174 -100 30 0 66 2 80 5 14 3 35 8 48 11 41 9 90 46 100 75 24 69
-67 131 -227 155 -74 11 -81 14 -54 20 17 4 52 25 77 47 70 62 94 127 94 250
0 137 -43 221 -138 273 -43 23 -68 29 -134 32 -50 2 -96 -1 -122 -9z m127
-127 c38 -21 53 -69 54 -170 0 -109 -20 -166 -62 -176 -62 -16 -105 47 -109
159 -5 139 48 224 117 187z"/>
<path d="M1957 2098 c-134 -29 -198 -154 -151 -295 31 -92 97 -135 213 -139
64 -3 81 1 130 26 83 42 86 48 44 98 l-35 42 -29 -21 c-17 -12 -46 -23 -66
-24 -29 -3 -42 2 -66 26 -27 27 -29 34 -25 84 5 61 28 95 63 95 27 0 44 -18
54 -57 7 -27 11 -28 67 -29 l60 -2 1 97 1 96 -46 -1 c-63 -2 -62 -2 -62 -20 0
-15 -2 -15 -23 -1 -37 24 -89 34 -130 25z"/>
<path d="M2378 2088 c-89 -40 -131 -104 -131 -199 0 -69 24 -137 58 -169 14
-13 25 -26 25 -30 0 -3 -25 -5 -56 -5 -54 1 -57 0 -69 -29 -8 -18 -9 -33 -4
-37 5 -3 44 -4 86 -1 l76 4 -7 -27 c-11 -45 -17 -99 -20 -175 -2 -68 -3 -73
-36 -102 -40 -35 -125 -78 -155 -78 -11 0 -27 4 -34 9 -12 8 -6 19 30 58 103
110 135 259 63 291 -97 45 -268 -187 -226 -308 10 -28 9 -32 -15 -41 -37 -14
-111 -15 -124 -2 -8 8 -1 22 30 55 89 92 129 230 81 278 -76 76 -250 -103
-250 -257 0 -23 5 -45 10 -48 27 -17 -12 -41 -84 -50 -46 -7 -81 5 -103 34
-20 25 -15 35 23 56 46 24 121 108 145 160 27 59 24 92 -12 126 -35 33 -82 38
-128 14 -32 -16 -101 -92 -101 -111 0 -15 -50 -25 -55 -10 -3 6 -6 22 -9 36
-18 107 -124 169 -176 103 -38 -49 -17 -112 52 -158 24 -16 45 -31 47 -32 6
-4 -18 -80 -39 -128 -21 -46 -68 -97 -84 -92 -18 6 -19 105 -1 156 14 43 14
47 -2 58 -55 41 -103 -30 -107 -157 -1 -47 -4 -56 -26 -67 -21 -11 -26 -10
-31 5 -12 33 1 140 25 211 l24 72 -24 10 c-14 5 -31 9 -38 9 -31 0 -86 -154
-86 -243 0 -94 67 -142 144 -102 26 14 30 13 59 -7 85 -60 180 12 238 181 14
42 31 77 38 79 9 2 11 -6 5 -30 -33 -144 70 -252 224 -234 30 4 72 16 94 27
32 17 46 19 64 10 47 -21 118 -23 188 -6 56 14 76 15 106 6 68 -20 149 5 232
71 l38 30 10 -27 c5 -14 10 -29 10 -32 0 -3 11 -21 25 -39 92 -120 264 -101
336 38 26 51 24 90 -6 127 -28 33 -62 34 -45 1 34 -64 -28 -166 -107 -178 -33
-4 -81 24 -103 61 -16 26 -29 75 -35 132 -1 6 16 35 37 65 20 30 52 84 70 120
29 57 37 65 63 66 63 4 100 12 98 20 -1 4 -15 9 -30 11 -55 7 -59 13 -25 35
17 11 32 23 32 26 0 11 -60 77 -68 75 -5 -1 -13 7 -20 18 -11 18 -9 19 38 19
45 0 50 2 51 23 0 12 2 30 4 39 5 27 -18 102 -41 130 -53 67 -181 94 -266 56z
m148 -123 c9 -14 13 -29 10 -33 -4 -4 -34 -7 -67 -7 -55 -1 -59 0 -53 19 16
50 83 62 110 21z m-61 -152 c-26 -27 -27 -27 -41 -8 -22 29 -17 35 27 35 l42
0 -28 -27z m43 -210 c-7 -16 -25 -48 -41 -73 l-28 -45 6 40 c10 76 24 105 51
105 22 0 23 -2 12 -27z m-1213 -13 c14 -22 23 -70 15 -75 -13 -8 -53 53 -46
70 6 17 22 20 31 5z m355 -74 c0 -12 -13 -42 -28 -67 -30 -47 -108 -116 -119
-105 -19 19 57 171 100 201 25 17 47 4 47 -29z m541 -52 c-14 -51 -86 -144
-111 -144 -11 0 -4 41 12 73 5 9 6 17 3 17 -9 0 55 93 73 108 24 18 35 -9 23
-54z m-265 27 c2 -42 -89 -181 -118 -181 -25 0 23 126 67 178 30 36 49 37 51
3z"/>
<path d="M1541 2092 c-12 -4 -15 -113 -3 -111 29 5 31 -4 30 -101 -1 -89 -4
-100 -20 -100 -15 0 -18 -9 -18 -55 l0 -55 118 0 118 0 2 60 c1 46 -1 58 -12
54 -24 -9 -28 14 -28 164 l0 147 -88 0 c-49 0 -93 -1 -99 -3z"/>
<path d="M555 1018 c-7 -27 -25 -39 -25 -18 0 17 -18 11 -23 -7 -3 -14 -6 -11
-11 10 -5 15 -14 27 -21 27 -11 0 -10 -9 3 -42 20 -55 20 -55 37 -32 13 17 14
17 15 2 0 -10 4 -18 10 -18 11 0 33 76 27 93 -3 7 -8 0 -12 -15z"/>
<path d="M880 1022 c-18 -15 -22 -25 -16 -46 8 -33 29 -42 62 -27 31 14 30 57
-2 78 -19 12 -24 11 -44 -5z m50 -38 c0 -19 -5 -24 -25 -24 -20 0 -25 5 -25
24 0 13 6 26 13 29 22 7 37 -4 37 -29z"/>
<path d="M1006 1033 c-10 -10 -7 -93 4 -93 6 0 10 9 10 20 0 11 3 19 8 19 25
-4 34 3 15 11 -29 12 -30 30 -1 30 12 0 18 3 14 7 -9 10 -42 14 -50 6z"/>
<path d="M1115 1032 c-9 -10 -5 -92 5 -92 6 0 10 9 10 20 0 11 3 19 8 19 4 -1
14 -1 22 0 13 1 13 3 0 10 -8 6 -18 7 -22 5 -4 -3 -8 2 -8 10 0 10 9 16 22 16
12 0 18 3 14 7 -8 8 -44 12 -51 5z"/>
<path d="M1226 1033 c-2 -3 -1 -15 4 -27 5 -13 4 -29 -1 -37 -14 -23 -11 -29
18 -29 21 0 24 3 15 12 -16 16 -15 65 0 70 7 3 3 7 -9 10 -12 3 -24 4 -27 1z"/>
<path d="M1466 1033 c-3 -3 -6 -26 -6 -50 0 -41 1 -43 30 -43 17 0 30 5 30 10
0 6 -3 9 -7 9 -19 -3 -33 2 -33 11 0 6 3 9 8 9 19 -3 33 2 27 11 -3 5 -12 7
-20 3 -9 -3 -15 1 -15 11 0 10 8 16 22 16 12 0 18 3 14 7 -9 10 -42 14 -50 6z"/>
<path d="M1856 1033 c-3 -4 -6 -26 -6 -50 0 -42 1 -43 32 -43 17 0 28 3 24 8
-4 4 -13 7 -18 7 -6 0 -13 6 -16 14 -3 10 0 12 11 8 9 -3 19 -2 22 3 6 9 -8
14 -27 11 -5 0 -8 6 -8 14 0 9 9 15 22 15 12 0 19 2 16 5 -9 9 -46 14 -52 8z"/>
<path d="M1966 1033 c-3 -3 -6 -26 -6 -50 0 -41 1 -43 30 -43 17 0 30 5 30 11
0 6 -7 9 -15 6 -8 -4 -17 -2 -20 4 -4 5 4 13 17 18 22 9 21 12 -4 15 -22 2
-20 26 3 26 12 0 19 3 15 7 -9 10 -42 14 -50 6z"/>
<path d="M2093 1033 c-8 -3 -13 -23 -13 -49 0 -40 2 -44 25 -44 14 0 25 5 25
10 0 6 -3 9 -7 9 -5 -1 -14 -1 -22 0 -16 1 -5 16 12 16 5 0 12 6 15 13 2 7 -2
10 -12 6 -11 -4 -16 -1 -16 10 0 10 8 16 22 16 12 0 18 3 14 7 -9 9 -27 11
-43 6z"/>
<path d="M2190 1029 c0 -5 6 -9 14 -9 10 0 12 -11 9 -40 -3 -25 -1 -40 6 -40
6 0 11 18 11 40 0 31 4 40 17 40 9 0 13 3 9 7 -11 11 -66 12 -66 2z"/>
<path d="M2542 1024 c-43 -30 -18 -93 33 -80 25 6 43 45 30 65 -14 24 -42 30
-63 15z m46 -40 c-2 -11 -13 -20 -26 -22 -18 -3 -22 1 -22 22 0 15 7 26 18 29
23 5 35 -7 30 -29z"/>
<path d="M2670 992 c0 -31 4 -51 9 -47 6 3 8 14 6 25 -4 22 10 28 18 8 4 -10
8 -9 16 2 9 12 11 10 11 -12 0 -16 5 -28 10 -28 6 0 10 20 10 45 0 47 -12 58
-29 28 -10 -17 -12 -16 -31 7 l-20 25 0 -53z"/>
<path d="M310 1024 c0 -4 5 -24 12 -45 11 -39 28 -53 28 -24 0 8 5 15 10 15 6
0 10 -7 10 -15 0 -8 4 -15 10 -15 11 0 34 79 25 88 -3 3 -8 -4 -12 -16 -6 -24
-18 -29 -27 -9 -5 10 -7 10 -12 0 -9 -20 -24 -15 -24 7 0 11 -4 20 -10 20 -5
0 -10 -3 -10 -6z"/>
<path d="M630 1021 c0 -9 21 -74 27 -80 2 -3 10 4 18 15 13 17 14 17 15 2 0
-33 18 -18 33 27 9 30 11 45 4 42 -7 -2 -14 -14 -17 -28 -6 -23 -6 -23 -19 -4
-8 14 -14 16 -17 8 -9 -20 -24 -15 -24 7 0 11 -4 20 -10 20 -5 0 -10 -4 -10
-9z"/>
<path d="M1330 1015 c-27 -33 12 -85 53 -69 18 6 31 34 17 34 -6 0 -10 -5 -10
-11 0 -18 -45 -5 -48 15 -6 27 19 38 45 20 24 -15 31 -6 11 14 -17 17 -53 15
-68 -3z"/>
<path d="M1577 1023 c-15 -14 -6 -34 19 -43 14 -6 22 -15 18 -21 -4 -8 -9 -8
-17 0 -14 14 -27 14 -27 1 0 -17 51 -24 61 -9 14 22 11 29 -16 39 -14 5 -25
14 -25 20 0 13 17 13 25 0 4 -6 11 -8 16 -4 5 3 7 10 4 15 -7 10 -48 12 -58 2z"/>
<path d="M1706 986 c16 -46 34 -61 34 -29 0 15 2 14 14 -3 14 -18 15 -18 24 6
20 52 23 70 14 70 -6 0 -13 -12 -18 -27 -5 -21 -8 -24 -11 -10 -3 9 -9 17 -14
17 -5 0 -13 -8 -16 -17 -6 -15 -8 -14 -13 6 -3 14 -11 26 -17 28 -9 3 -8 -9 3
-41z"/>
<path d="M2390 1014 c-19 -21 -1 -68 26 -72 21 -3 60 25 49 36 -3 3 -11 0 -17
-6 -19 -19 -45 -14 -51 8 -6 25 24 45 41 28 14 -14 27 -4 17 11 -9 16 -51 13
-65 -5z"/>
<path d="M785 950 c-3 -5 -1 -10 4 -10 6 0 11 5 11 10 0 6 -2 10 -4 10 -3 0
-8 -4 -11 -10z"/>
<path d="M2305 950 c-3 -5 -1 -10 4 -10 6 0 11 5 11 10 0 6 -2 10 -4 10 -3 0
-8 -4 -11 -10z"/>
</g>
</svg>
